inDegrees=no
num_controls=7
num_derivatives=13
num_iterations=112
num_multipliers=7
num_parameters=0
num_slacks=7
num_states=26
objective=4.881688
objective_accelerations=0.612635
objective_balance=0.070276
objective_effort=0.461819
objective_height=3.705489
objective_ligament=0.031470
solver_duration=1687.765159
status=Solve_Succeeded
success=true
DataType=double
version=3
OpenSimVersion=4.4-2022-07-23-0e9fedc
endheader
time	/jointset/ground_pelvis/pelvis_tilt/value	/jointset/ground_pelvis/pelvis_tx/value	/jointset/ground_pelvis/pelvis_ty/value	/jointset/hip_l/hip_flexion_l/value	/jointset/hip_l/hip_adduction_l/value	/jointset/hip_l/hip_rotation_l/value	/jointset/back/lumbar_extension/value	/jointset/patellofemoral_l/patellar_flexion_l/value	/jointset/knee_l/knee_flexion_l/value	/jointset/knee_l/knee_adduction_l/value	/jointset/knee_l/knee_rotation_l/value	/jointset/ankle_l/ankle_angle_l/value	/jointset/subtalar_l/subtalar_angle_l/value	/jointset/ground_pelvis/pelvis_tilt/speed	/jointset/ground_pelvis/pelvis_tx/speed	/jointset/ground_pelvis/pelvis_ty/speed	/jointset/hip_l/hip_flexion_l/speed	/jointset/hip_l/hip_adduction_l/speed	/jointset/hip_l/hip_rotation_l/speed	/jointset/back/lumbar_extension/speed	/jointset/patellofemoral_l/patellar_flexion_l/speed	/jointset/knee_l/knee_flexion_l/speed	/jointset/knee_l/knee_adduction_l/speed	/jointset/knee_l/knee_rotation_l/speed	/jointset/ankle_l/ankle_angle_l/speed	/jointset/subtalar_l/subtalar_angle_l/speed	/forceset/tau_hip_flexion_l	/forceset/tau_hip_adduction_l	/forceset/tau_hip_rotation_l	/forceset/tau_knee_flexion_l	/forceset/tau_ankle_angle_l	/forceset/tau_subtalar_angle_l	/forceset/tau_lumbar_extension	lambda_cid13_p0	lambda_cid13_p1	lambda_cid13_p2	lambda_cid13_p3	lambda_cid13_p4	lambda_cid13_p5	lambda_cid14_p0	/jointset/ground_pelvis/pelvis_tilt/accel	/jointset/ground_pelvis/pelvis_tx/accel	/jointset/ground_pelvis/pelvis_ty/accel	/jointset/hip_l/hip_flexion_l/accel	/jointset/hip_l/hip_adduction_l/accel	/jointset/hip_l/hip_rotation_l/accel	/jointset/back/lumbar_extension/accel	/jointset/patellofemoral_l/patellar_flexion_l/accel	/jointset/knee_l/knee_flexion_l/accel	/jointset/knee_l/knee_adduction_l/accel	/jointset/knee_l/knee_rotation_l/accel	/jointset/ankle_l/ankle_angle_l/accel	/jointset/subtalar_l/subtalar_angle_l/accel	gamma_cid13_p0	gamma_cid13_p1	gamma_cid13_p2	gamma_cid13_p3	gamma_cid13_p4	gamma_cid13_p5	gamma_cid14_p0
0.5	-0.4356875925109098	-0.07319078359385219	0.7396656750906547	1.342725643791375	-0.3084269722778253	0.00331936107558897	-0.3406310300488763	0.8205790466759375	0.8205790466756935	-0.1726338448006531	0.1724324412482259	0.08970503640066473	-0.03867146472761372	-0.6853222641961617	-0.2421496025347797	-0.595421685469909	2.565078814397645	0.009893089811699621	0.7335743222206952	-0.6042733992917247	2.116433322477757	2.11643332247769	-0.01027013609047187	0.01515678059258841	0.3575242547153302	0.05725116845223466	-0.2440647070998314	0.0168206053671304	-0.02379653462126318	-0.2324917938923392	0.1396096326103388	0.03641068655088416	0.2223640068972618	6.280611285971117	-19.15048045214201	5.206602757960088	-6.94007857940828	-605.8648493588477	-54.36195602899512	-20.37733662408115	0.7901787802376008	0.7984712720936289	-0.410387329275023	-1.70963545282777	0.7805332870706712	-0.3437827508758676	1.953641039511834	-1.386545763779047	-1.386545763779204	0.05311792027694959	-0.04559153944521906	-0.4576488458090091	0.7593566995438945	-4.130694327468612e-07	-6.603854517702163e-07	2.329933097653042e-06	2.187782382183722e-07	-4.753650897048248e-07	2.285002809016351e-07	-4.321305959241603e-07
0.51	-0.4424997834491528	-0.0755721384341235	0.7336922074537912	1.368286692262907	-0.3082906689136054	0.01063865330797859	-0.3465762735929864	0.841670760504373	0.8416707605044771	-0.1727374711381301	0.1725818207045682	0.09325616226416433	-0.03806283568322875	-0.6770284390484816	-0.2341082017007366	-0.599146528890718	2.546804548630026	0.01733971308158352	0.7302018569600005	-0.5847279298744623	2.101624775254269	2.101624775254263	-0.01045753321921149	0.01471748294667028	0.3526229730257255	0.06444548052385421	-0.2520668845442367	0.01680710146588021	-0.02380060722089173	-0.2347894908563669	0.1393427000166687	0.03646988426695181	0.2286366871394432	5.898416183017122	-18.99574426978188	5.052258667039759	-6.78385460524791	-611.1166539005225	-53.98707944061265	-19.07319259764058	0.8620631334164774	0.8089918480745428	-0.3348269688210249	-1.935326719111943	0.7222982256316911	-0.3466875262589179	1.962106840903717	-1.570625507459124	-1.570625507450054	-0.05506077056758753	-0.04382130254343945	-0.518047648083994	0.6949260792342395	-3.840162308067547e-07	-5.785005716913558e-07	2.225759563685e-06	2.120981697665815e-07	-4.40343065229759e-07	2.803274118711617e-07	-4.078863059198388e-07
0.52	-0.4492264203856213	-0.07787267579425106	0.7276852325586527	1.393655197160693	-0.3080807850409535	0.01792167906525538	-0.3523246410533092	0.8626058655994004	0.8626058655998617	-0.172843049895099	0.1727266626994159	0.09675593934726007	-0.03738317199447465	-0.6682114638455253	-0.2259861065060317	-0.6021231371249987	2.526570099647071	0.02460919149884253	0.7263210271955951	-0.5648981825344118	2.085111575797765	2.08511157579782	-0.01066061999267865	0.0142492882856154	0.3472544986342209	0.07145809732601066	-0.2600690619886936	0.01679359756465622	-0.02380467982012151	-0.2370871878204244	0.1390757674230175	0.03652908198305174	0.2349093673815635	5.509305525638272	-18.84221458037438	4.900869596025287	-6.630593973158651	-616.4910462007692	-53.69867270828078	-17.76934337959346	0.8948087912923499	0.8146101442262913	-0.2607402919692807	-2.101672095895189	0.7451043165456896	-0.4454556516179839	2.010496624069238	-1.727476210382452	-1.727476210382366	0.04997999133131885	-0.05137094247249677	-0.5510873861885823	0.723017645651306	-3.571038713403045e-07	-5.014902694475183e-07	2.127513155803446e-06	2.08404143737958e-07	-4.099987309856909e-07	3.272032037322499e-07	-3.845479054657184e-07
0.53	-0.4558624336685919	-0.08009167844720659	0.7216522579621246	1.418811866922033	-0.3077989422509973	0.02516325948591167	-0.357873341156019	0.883367523465363	0.8833675234659104	-0.1729502862730518	0.1728666763458107	0.10019983755925	-0.03663412290645592	-0.658911240901094	-0.2178088906788183	-0.6043431503447669	2.504450273657608	0.03172940111572284	0.7219021393218432	-0.5448074672664255	2.066947618167707	2.066947618167712	-0.0107735227337754	0.0137567663795193	0.341455685101497	0.07832069431627749	-0.2679405695392548	0.01657710535542333	-0.02375405819610104	-0.2393544984747863	0.1387526589067136	0.03646870174001326	0.2410226422542518	5.101967300221014	-18.63147443648551	4.737975216075728	-6.414189008027051	-621.7949634673154	-53.34685693191057	-16.4693762404795	0.9595850125827191	0.8201486064532334	-0.1834158734418595	-2.314221151619738	0.6907451944306938	-0.4543658597306152	2.013514589055597	-1.901637965686803	-1.901637965694597	-0.03997883061516996	-0.04813109237745525	-0.6046812966509365	0.6630566321708804	-3.293587179987625e-07	-4.222289867257625e-07	2.023945892632715e-06	2.03825747657666e-07	-3.791045746943038e-07	3.674468231353615e-07	-3.598881643067868e-07
0.54	-0.4624030535287812	-0.08222873468099288	0.7156009264261074	1.443737921763254	-0.3074468441828403	0.03235779892692959	-0.363220102983869	0.9039393852697519	0.9039393852703771	-0.1730582623631717	0.1730017771176173	0.1035836670439455	-0.03581741266724297	-0.6491327792941488	-0.2095968226721856	-0.6057945250229567	2.480447115622212	0.03866024713947293	0.7169128312690134	-0.5245105275627692	2.047152363482883	2.047152363482837	-0.0108085624262766	0.01326671336545118	0.3352407531753192	0.08499032756480962	-0.2758120770898894	0.01636061314616359	-0.02370343657177195	-0.2416218091291754	0.1384295503904124	0.03640832149694637	0.2471359171268698	4.687947239469077	-18.42154528216763	4.57747419778973	-6.201653893540679	-627.2167275250463	-53.07409641073682	-15.17845716414881	0.9904565237946544	0.8215805801104293	-0.1070125836535107	-2.478338505081863	0.7072315979196544	-0.5595396874335669	2.051741511203052	-2.05373562133545	-2.053735621335436	0.06555260105032987	-0.05087716406682975	-0.6343110648789613	0.6844248973043968	-3.006921756890339e-07	-3.40477257517799e-07	1.914491725737788e-06	1.982688996053151e-07	-3.476021046484363e-07	4.003527198190093e-07	-3.33766514282958e-07
